HIERARCHY
ROOT Hips
{
	OFFSET	0	0	0
	CHANNELS 6  Xposition Yposition Zposition Xrotation Yrotation Zrotation
	JOINT Spine
	{
		OFFSET	0	6.22639	1.25326
		CHANNELS 3  Xrotation Yrotation Zrotation
		JOINT Spine1
		{
			OFFSET	0	10.6877	-1.90851
			CHANNELS 3  Xrotation Yrotation Zrotation
			JOINT Spine2
			{
				OFFSET	0	8.10164	0.868374
				CHANNELS 3  Xrotation Yrotation Zrotation
				JOINT Spine3
				{
					OFFSET	0	9.69525	2.88186
					CHANNELS 3  Xrotation Yrotation Zrotation
					JOINT Spine4
					{
						OFFSET	0	14.352	-1.46956
						CHANNELS 3  Xrotation Yrotation Zrotation
						JOINT Neck
						{
							OFFSET	0	6.85157	-4.79991
							CHANNELS 3  Xrotation Yrotation Zrotation
							JOINT Head
							{
								OFFSET	0	8.2257	-2.46198
								CHANNELS 3  Xrotation Yrotation Zrotation
								End Site
								{
									OFFSET	0	17.1575	-0.830203
								}
							}
						}
					}
					JOINT LeftShoulder
					{
						OFFSET	-4.12239	17.4438	-8.22569
						CHANNELS 3  Xrotation Yrotation Zrotation
						JOINT LeftArm
						{
							OFFSET	-8.97544	-2.46198	3.15861
							CHANNELS 3  Xrotation Yrotation Zrotation
							JOINT LeftForeArm
							{
								OFFSET	-28.8645	-1.31743	2.06032
								CHANNELS 3  Xrotation Yrotation Zrotation
								JOINT LeftHand
								{
									OFFSET	-23.6955	-1.63749	1.69136
									CHANNELS 3  Xrotation Yrotation Zrotation
									End Site
									{
										OFFSET	-8.64768	-0.597604	0.617222
									}
								}
							}
						}
					}
					JOINT RightShoulder
					{
						OFFSET	4.12239	17.4438	-8.22569
						CHANNELS 3  Xrotation Yrotation Zrotation
						JOINT RightArm
						{
							OFFSET	8.97544	-2.46198	3.15861
							CHANNELS 3  Xrotation Yrotation Zrotation
							JOINT RightForeArm
							{
								OFFSET	28.8645	-1.31743	2.06032
								CHANNELS 3  Xrotation Yrotation Zrotation
								JOINT RightHand
								{
									OFFSET	23.6955	-1.63749	1.69136
									CHANNELS 3  Xrotation Yrotation Zrotation
									End Site
									{
										OFFSET	8.64768	-0.597604	0.617222
									}
								}
							}
						}
					}
				}
			}
		}
	}
	JOINT LeftUpLeg
	{
		OFFSET	-8.47813	-3.1132	-0.626629
		CHANNELS 3  Xrotation Yrotation Zrotation
		JOINT LeftLeg
		{
			OFFSET	-1.88069	-36.8514	-0.576069
			CHANNELS 3  Xrotation Yrotation Zrotation
			JOINT LeftFoot
			{
				OFFSET	-1.83866	-33.8924	2.91475
				CHANNELS 3  Xrotation Yrotation Zrotation
				JOINT LeftToeBase
				{
					OFFSET	0	-4.18359	-11.1116
					CHANNELS 3  Xrotation Yrotation Zrotation
					End Site
					{
						OFFSET	0	-1.67344	-6.69374
					}
				}
			}
		}
	}
	JOINT RightUpLeg
	{
		OFFSET	8.47813	-3.1132	-0.626629
		CHANNELS 3  Xrotation Yrotation Zrotation
		JOINT RightLeg
		{
			OFFSET	1.88069	-36.8514	-0.576069
			CHANNELS 3  Xrotation Yrotation Zrotation
			JOINT RightFoot
			{
				OFFSET	1.83866	-33.8924	2.91475
				CHANNELS 3  Xrotation Yrotation Zrotation
				JOINT RightToeBase
				{
					OFFSET	0	-4.18359	-11.1116
					CHANNELS 3  Xrotation Yrotation Zrotation
					End Site
					{
						OFFSET	0	-1.67344	-6.69374
					}
				}
			}
		}
	}
}
MOTION
Frames: 17
Frame Time: 0.020409
 0 -4.10085 3.34698 -0 0 -0 -0 0 -0 -0 0 -0 -0 0 -0 -0 0 -0 -0 0 -0 -0 0 -0 -0 0 -0 -0 0 -0 -0 0 -0 -0 0 -0 -0 0 -0 -0 0 -0 -0 0 -0 -0 0 -0 -0 0 -0 -0 0 -0 -0 0 -0 -0 0 -0 -0 0 -0 -0 0 -0 -0 0 -0 -0 0 -0 -0 0 -0
 -22.7702 80.5113 -4.30157 89.4833 -67.7488 84.3312 180 179.996 -178.419 167.719 179.992 -177.365 166.958 179.975 -177.365 169.532 179.996 -178.419 1.22857 0.0112996 0.526876 15.173 -1.1588 -2.01609 4.56293 1.30482 -0.662141 178.196 -153.325 176.079 174.615 -171.952 -124.57 2.10074 -19.6878 -1.04726 -0 -1.3592 0.804165 178.922 160.222 -177.679 2.47673 -7.03002 -63.287 8.82041 31.7409 -3.2333 -0 -0.278478 -1.68951 162.6 -174.664 -179.346 164.989 -177.72 179.724 158.504 -179.998 -179.784 179.438 180 -180 160.606 -171.552 -170.06 172.138 -172.225 -179.902 162.843 179.993 -177.43 179.805 180 -180
 -22.6846 80.4965 -4.33589 88.8509 -67.687 83.784 180 179.988 -178.494 167.754 179.977 -177.49 167.002 179.931 -177.49 169.588 179.988 -178.494 1.16549 0.0102126 0.501975 14.9673 -0.797629 -1.80374 4.49895 1.48506 -0.573054 178.242 -153.408 176.179 174.82 -171.858 -124.697 2.07443 -19.9926 -1.01239 -0 -1.48858 0.72463 178.809 160.255 -177.436 1.89664 -7.00432 -63.5744 8.78269 31.3656 -3.09817 -0 -0.350472 -1.89887 162.368 -174.558 -179.475 164.944 -177.775 179.731 158.789 -179.995 -179.767 179.44 180 -180 160.258 -171.472 -170.182 172.208 -172.298 -179.95 163.026 179.99 -177.494 179.807 180 -180
 -22.1576 80.4603 -4.26249 86.2916 -67.2579 81.1322 4.81986e-05 -0.00192907 1.43126 167.792 -179.996 -177.615 167.055 -179.988 -177.615 169.65 -179.998 -178.569 1.08946 0.00907135 0.477001 14.7238 -0.245324 -1.67841 4.42467 2.06007 -0.494521 178.135 -154.667 175.95 174.713 -171.608 -124.717 2.09118 -21.6614 -0.849049 -0 -2.15162 1.06073 178.613 159.964 -177.012 0.0475497 -6.11399 -64.4491 8.77312 30.6664 -2.75283 -0 -0.459715 -3.01587 161.893 -174.274 -179.678 164.784 -177.462 179.74 158.978 -179.973 -179.603 179.442 180 -180 158.63 -171.13 -170.478 172.285 -172.352 -179.987 163.887 -179.988 -177.742 179.808 180 -180
 -21.5777 80.457 -4.14506 84.9126 -66.918 79.6647 180 179.997 -178.631 167.821 179.994 -177.719 167.1 179.982 -177.719 169.719 179.997 -178.631 0.984782 0.00784165 0.456182 14.4085 0.276302 -1.34185 4.32727 2.29738 -0.357674 177.822 -156.072 175.273 174.289 -171.135 -124.55 2.13732 -23.3526 -0.779259 -0 -3.00932 1.74735 178.399 159.98 -176.549 177.859 -174.97 114.563 8.83238 29.7779 -2.59598 -0 -0.70192 -4.39276 160.756 -173.801 -179.869 164.362 -177.061 179.744 159.243 -179.995 -179.211 179.443 180 -180 157.339 -170.954 -171.024 172.772 -172.434 -179.991 164.427 179.994 -178.191 179.809 180 -180
 -21.2752 80.3778 -4.03474 84.628 -66.5873 79.4405 0.000146558 -0.00634888 1.32239 167.842 -179.987 -177.796 167.147 -179.962 -177.796 169.808 -179.994 -178.678 0.814536 0.00626642 0.440752 13.9093 0.601896 -1.10268 4.17582 2.4076 -0.261876 177.547 -157.353 174.683 173.792 -170.593 -124.427 2.19814 -24.2232 -0.776597 -0 -3.6078 2.49087 178.201 159.672 -176.119 176.591 -176.453 114.125 8.95706 29.23 -2.59078 -0 -0.865754 -5.79262 159.961 -172.897 179.696 163.823 -176.451 179.797 159.829 179.985 -178.572 179.446 180 -180 156.224 -170.864 -171.312 173.617 -172.462 -179.925 164.736 -179.999 -178.71 179.809 180 -180
 -21.1144 80.2632 -3.9605 84.9827 -66.2426 80.0277 0.000296286 -0.0130836 1.29727 167.853 -179.974 -177.838 167.183 -179.922 -177.838 169.886 -179.987 -178.703 0.654191 0.00493731 0.432396 13.4365 0.345801 -1.19551 4.03446 2.16759 -0.303311 177.355 -158.417 174.277 173.473 -170.055 -124.158 2.2883 -24.4682 -0.81799 -0 -3.91988 3.28112 178.008 159.384 -175.7 175.99 -178.084 113.913 9.19114 29.0979 -2.68765 -0 -1.0109 -7.10581 159.362 -172.109 179.406 163.699 -175.833 179.89 161.021 179.932 -177.758 179.449 180 -180 155.246 -170.889 -171.714 174.77 -172.702 -179.842 164.844 -179.981 -179.291 179.81 180 -180
 -20.768 80.1453 -3.95838 86.5463 -65.9385 81.9848 0.000286482 -0.0129734 1.26501 167.912 -179.974 -177.892 167.252 -179.922 -177.892 169.955 -179.987 -178.735 0.603464 0.00444122 0.421648 13.2302 -0.0612386 -1.27261 3.97309 1.6894 -0.354349 177.191 -159.215 173.928 173.068 -169.462 -123.624 2.41692 -23.8276 -0.811115 -0 -4.01168 4.1063 177.714 159.221 -175.063 175.544 -179.574 113.894 9.43796 28.9235 -2.84061 -0 -1.22606 -8.28535 158.297 -171.353 179.113 164.303 -175.307 179.847 161.993 179.92 -177.005 179.452 180 -180 154.206 -171.071 -172.073 175.811 -173.105 -179.826 164.995 -179.982 -179.918 179.81 180 -180
 -20.2595 80.0444 -3.92883 88.1556 -65.5896 84.0777 6.69418e-05 -0.00313289 1.22408 167.97 -179.994 -177.96 167.297 -179.981 -177.96 169.961 -179.997 -178.776 0.699176 0.00497907 0.407996 13.444 -0.336756 -1.33923 4.03774 1.3971 -0.395506 177.026 -160.125 173.583 172.798 -168.942 -123.134 2.61072 -23.1593 -0.784225 -0 -4.20326 5.02142 177.547 159.23 -174.7 174.926 178.968 113.771 9.67999 28.7182 -2.9017 -0 -1.56957 -9.3711 156.657 -170.617 178.778 165.152 -174.895 179.805 163.169 179.924 -176.21 179.455 180 -180 153.177 -171.314 -172.335 176.784 -173.499 -179.819 164.852 -179.994 179.437 179.81 180 -180
 -20.0115 80.0034 -3.94359 89.2062 -65.5157 85.5518 8.44273e-06 -0.000409105 1.18225 168.057 -179.999 -178.03 167.393 -179.998 -178.03 170.047 -180 -178.818 0.664488 0.00457035 0.394057 13.2534 -0.70813 -1.64867 3.98288 1.29144 -0.507969 176.911 -160.853 173.345 172.729 -168.414 -122.604 2.85127 -22.5293 -0.763502 -0 -4.50646 5.89264 177.392 159.28 -174.366 174.527 177.676 113.83 9.92739 28.5392 -2.99997 -0 -2.00096 -10.2389 155.551 -169.952 178.48 166.415 -174.49 179.936 163.56 179.949 -175.318 179.457 180 -180 152.492 -171.553 -172.754 177.755 -173.8 -179.808 164.597 -179.981 178.761 179.81 180 -180
 -19.9303 79.9518 -3.91228 89.8689 -65.4606 86.5696 1.92443e-05 -0.000958071 1.15072 168.126 -179.998 -178.082 167.471 -179.994 -178.082 170.119 -179.999 -178.849 0.627663 0.00420193 0.383549 13.0773 -0.855062 -1.82801 3.93156 1.32104 -0.567155 176.779 -161.377 173.069 172.768 -167.924 -122.222 3.12526 -21.9145 -0.67227 -0 -4.81498 6.77958 177.287 159.327 -174.137 174.312 176.528 113.868 10.2037 28.5076 -3.13396 -0 -2.42564 -10.9795 154.776 -169.313 178.229 168.225 -174.148 179.912 164.181 179.969 -174.494 179.459 180 -180 152.09 -171.797 -173.124 178.611 -174.056 -179.763 164.362 -179.968 178.113 179.81 180 -180
 -19.822 79.8738 -3.90662 90.5845 -65.4231 87.5464 180 179.997 -178.873 168.186 179.995 -178.122 167.543 179.984 -178.122 170.196 179.997 -178.873 0.560705 0.00367535 0.37555 12.8115 -1.0437 -2.39358 3.85765 1.8177 -0.73392 176.715 -161.858 172.94 173.036 -167.534 -121.801 3.39379 -21.0873 -0.627262 -0 -5.05965 7.61879 177.182 159.458 -173.913 174.098 175.494 113.867 10.5021 28.4705 -3.28306 -0 -2.89662 -11.5641 154.011 -168.677 177.949 169.039 -173.901 179.859 164.664 179.951 -173.676 179.461 180 -180 151.715 -171.981 -173.411 179.305 -174.281 -179.759 164.532 -179.978 177.435 179.811 180 -180
 -19.5967 79.8253 -3.90073 90.7281 -65.221 87.9185 4.34156e-05 -0.00225989 1.10059 168.264 -179.995 -178.166 167.63 -179.986 -178.166 170.273 -179.998 -178.899 0.52893 0.00338674 0.366849 12.6296 -1.1349 -2.89586 3.80951 2.3667 -0.87567 176.658 -162.484 172.829 173.231 -167.194 -121.392 3.64159 -20.1614 -0.536672 -0 -5.38644 8.58194 177.143 160.056 -173.836 173.892 174.524 113.794 10.8249 28.4266 -3.44763 -0 -3.44916 -12.007 153.367 -168.301 177.736 169.36 -173.923 179.914 165.11 179.958 -172.918 179.462 180 -180 151.056 -172.052 -173.685 179.773 -174.467 -179.728 164.547 -179.983 176.696 179.811 180 -180
 -19.2881 79.7752 -3.82973 90.9423 -65.0652 88.3336 180 179.999 -178.927 168.331 179.998 -178.212 167.712 179.994 -178.212 170.363 179.999 -178.927 0.446123 0.00278453 0.357607 12.321 -0.803756 -3.28693 3.72235 3.35588 -0.950867 176.638 -163.036 172.799 173.41 -166.768 -121.079 3.86253 -19.5122 -0.469404 -0 -5.85959 9.57858 177.128 160.923 -173.816 173.908 173.699 113.727 11.1722 28.4407 -3.60367 -0 -3.98066 -12.3602 152.641 -167.943 177.516 169.495 -173.952 179.859 165.546 179.963 -172.196 179.464 180 -180 150.483 -172.12 -173.912 0.0531024 -5.39328 0.252076 164.724 -179.977 175.92 179.811 180 -180
 -19.2118 79.7386 -3.83547 90.9257 -64.9904 88.4159 0.000121556 -0.00661582 1.0526 168.39 -179.987 -178.246 167.782 -179.96 -178.246 170.435 -179.993 -178.947 0.387223 0.00237129 0.35086 12.091 -0.670293 -3.56373 3.65751 3.90742 -1.0109 176.587 -163.481 172.699 173.564 -166.28 -120.904 4.07765 -19.1654 -0.415812 -0 -6.35178 10.5888 177.135 161.755 -173.845 174.242 173.065 114.008 11.5276 28.6147 -3.8633 -0 -4.3578 -12.5752 152.474 -167.707 177.384 169.677 -174.155 179.85 165.588 179.968 -171.584 179.465 180 -180 150.129 -172.201 -174.087 0.312206 -5.26088 0.262444 164.813 -179.982 175.188 179.812 180 -180
 -19.1777 79.7172 -3.88489 91.4323 -64.9533 89.0404 4.42726e-06 -0.000244453 1.03756 168.444 -180 -178.271 167.847 -179.999 -178.271 170.505 -180 -178.962 0.327882 0.00197921 0.345849 11.8573 -0.792878 -3.80224 3.59129 4.0309 -1.08049 176.604 -163.777 172.744 173.568 -165.801 -120.67 4.20314 -18.6362 -0.423223 -0 -6.8118 11.6857 177.104 162.631 -173.793 174.529 172.548 114.287 11.9349 29.0372 -4.20085 -0 -4.52464 -12.6477 152.133 -167.575 177.346 170.003 -174.336 179.87 165.71 179.967 -170.956 179.465 180 -180 150.065 -172.27 -174.07 0.446723 -5.15958 0.264527 164.59 -179.989 174.58 179.812 180 -180
 -19.1001 79.7039 -3.87205 91.7618 -64.9308 89.4398 1.99837e-05 -0.00111362 1.02805 168.499 -179.998 -178.287 167.911 -179.993 -178.287 170.568 -179.999 -178.972 0.285039 0.00170482 0.34268 11.6798 -0.786528 -3.87221 3.53901 4.11599 -1.09523 176.504 -164.118 172.538 173.503 -165.236 -120.436 4.3089 -18.473 -0.40052 -0 -7.31408 12.8449 177.104 163.4 -173.809 175.206 172.067 114.61 12.3097 29.4712 -4.42921 -0 -4.53322 -12.4996 151.89 -167.49 177.244 170.466 -174.581 179.922 165.55 179.973 -170.44 179.466 180 -180 149.981 -172.289 -174.031 0.622094 -5.07478 0.284117 164.419 -179.996 173.979 179.812 180 -180
